<?xml version="1.0" standalone="no"?>
<!DOCTYPE svg PUBLIC "-//W3C//DTD SVG 20010904//EN"
 "http://www.w3.org/TR/2001/REC-SVG-20010904/DTD/svg10.dtd">
<svg version="1.0" xmlns="http://www.w3.org/2000/svg"
 width="196.000000pt" height="196.000000pt" viewBox="0 0 196.000000 196.000000"
 preserveAspectRatio="xMidYMid meet">
<metadata>
Created by potrace 1.11, written by Peter Selinger 2001-2013
</metadata>
<g transform="translate(0.000000,196.000000) scale(0.100000,-0.100000)"
fill="#000000" stroke="none">
<path d="M800 1904 c-73 -15 -140 -34 -155 -44 -5 -4 -22 -10 -36 -14 -67 -15
-259 -146 -328 -221 -86 -95 -194 -268 -206 -332 -2 -10 -4 -18 -5 -18 -1 0
-3 -7 -5 -15 -2 -8 -11 -40 -20 -70 -25 -88 -29 -287 -6 -395 95 -458 492
-774 956 -761 123 4 137 6 239 32 146 38 299 127 415 243 74 75 82 84 132 161
44 68 80 145 107 230 29 93 33 121 38 255 10 317 -133 599 -404 795 -72 52
-207 114 -297 136 -139 34 -308 41 -425 18z"/>
</g>
</svg>
